<svg xmlns="http://www.w3.org/2000/svg" width="46" height="46" viewBox="1328 1 46 46"><g data-name="dl btn"><g data-name="BTN"><path d="M1338 1h26a10 10 0 0 1 10 10v26a10 10 0 0 1-10 10h-26a10 10 0 0 1-10-10V11a10 10 0 0 1 10-10z" fill="#fff" fill-rule="evenodd"/><path d="M1338.565 2h24.87a9.565 9.565 0 0 1 9.565 9.565v24.87a9.565 9.565 0 0 1-9.565 9.565h-24.87a9.565 9.565 0 0 1-9.565-9.565v-24.87A9.565 9.565 0 0 1 1338.565 2z" stroke-linejoin="round" stroke-linecap="round" stroke-width="1.91304" stroke="#d9e1e7" fill="transparent"/></g><path d="m1353.239 34.268-.057-.001h-4.744c-1.196 0-2.105.003-2.857-.081-.753-.085-1.413-.269-1.902-.757-.489-.488-.673-1.149-.758-1.901-.085-.753-.083-1.663-.083-2.861v-11.2c0-1.197-.003-2.106.081-2.858.085-.753.268-1.413.756-1.902.489-.489 1.15-.673 1.902-.758.753-.084 1.663-.083 2.861-.083h4.672a.81.81 0 0 1 .284.004c.712.002 1.26.013 1.807.287.59.296 1.01.75 1.803 1.544.794.794 1.25 1.216 1.546 1.808.273.548.283 1.095.284 1.803.019.095.02.193.004.29v11.067c0 1.197.002 2.106-.082 2.859-.085.752-.27 1.413-.758 1.9-.489.49-1.15.673-1.902.758-.722.08-1.587.082-2.712.082h-.145Zm-7.482-20.73c-.597.068-.837.185-.95.299-.113.113-.23.353-.297.95-.067.597-.072 1.483-.072 2.68v11.2c0 1.197.005 2.084.072 2.68.067.598.185.838.298.95.114.114.354.23.95.297.597.068 1.484.072 2.68.072h4.8l.056.002c1.164 0 2.038-.006 2.624-.072.597-.066.837-.185.95-.299.113-.112.23-.35.298-.947.068-.597.072-1.484.072-2.681V18.266h-4a.8.8 0 0 1-.8-.8v-4h-4c-1.197 0-2.084.005-2.681.073Zm8.28 3.128h3.182c-.016-.2-.045-.33-.101-.442-.108-.216-.453-.6-1.245-1.392-.794-.793-1.176-1.138-1.39-1.245-.111-.056-.244-.086-.445-.101v3.18Zm-2.922 13.805a.844.844 0 0 1-.67-.329l-3.635-3.636a.854.854 0 1 1 1.209-1.209l2.25 2.251v-7.251a.855.855 0 1 1 1.71 0v7.251l2.251-2.25a.854.854 0 1 1 1.21 1.208l-3.663 3.662a.853.853 0 0 1-.652.303Z" fill="#809fb8" fill-rule="evenodd" data-name="ICON"/></g></svg>