<svg xmlns="http://www.w3.org/2000/svg" width="49" height="49" viewBox="1059.336 1675.5 49 49"><g data-name="CompositeLayer"><path d="M1059.336 1685.3c0-5.412 4.388-9.8 9.8-9.8h29.4c5.413 0 9.8 4.388 9.8 9.8v29.4c0 5.412-4.387 9.8-9.8 9.8h-29.4c-5.412 0-9.8-4.388-9.8-9.8v-29.4Z" stroke-linejoin="round" stroke-linecap="round" stroke="#d1d5db" fill="transparent" data-name="Rectangle 20" stroke-width=".98"/><path d="M1092.04 1712h-15.751c-.62 0-1.125-.505-1.125-1.125v-21.75c0-.62.504-1.125 1.125-1.125h9.375v6.375c0 .62.504 1.125 1.125 1.125h6.375v15.375c0 .62-.505 1.125-1.124 1.125Zm-11.72-13.495c-.21 0-.396.11-.496.295-.1.183-.091.397.023.572l2.826 4.382-2.826 4.383a.558.558 0 0 0-.02.576c.1.183.285.292.493.292h1.636a.557.557 0 0 0 .492-.296c.353-.649.616-1.126.828-1.509l.017-.03c.505-.917.658-1.194.871-1.686.01.02.811 1.558 1.711 3.22a.562.562 0 0 0 .497.295h1.635a.555.555 0 0 0 .493-.29.558.558 0 0 0-.018-.576l-2.818-4.383 2.818-4.383a.556.556 0 0 0 .019-.574.549.549 0 0 0-.488-.288h-1.636a.562.562 0 0 0-.497.295c-1.426 2.654-1.714 3.208-1.716 3.211-.443-.931-.538-1.097-.769-1.497-.18-.31-.422-.732-.947-1.714a.562.562 0 0 0-.497-.295h-1.63Zm12.844-4.505h-6.001v-6h.287c.303 0 .586.117.797.328l4.59 4.594c.207.207.327.496.327.792v.286Z" fill="#66cc70" fill-rule="evenodd" data-name="ic"/></g></svg>