<svg xmlns="http://www.w3.org/2000/svg" width="24" height="24" viewBox="648 1890.545 24 24"><g data-name="CompositeLayer"><path d="M648 1902.495a12 12 0 1 1 0 .1z" fill="rgba(26,213,152,0.2 )" fill-rule="evenodd" data-name="Ellipse 3"/><path d="M656.439 1905.942a.897.897 0 0 1 0-1.261l5.568-5.616h-3.173a.89.89 0 0 1-.885-.893.89.89 0 0 1 .885-.892h5.309c.094 0 .185.015.27.043l.006.002c.004 0 .008.002.011.003a.875.875 0 0 1 .458.362l.001.003.008.012.006.01.003.006a.89.89 0 0 1 .122.45v5.356a.89.89 0 0 1-.885.892.889.889 0 0 1-.885-.892v-3.2l-5.568 5.615a.88.88 0 0 1-1.251 0Z" fill="#1ad598" fill-rule="evenodd" data-name="arrow"/></g></svg>