<svg xmlns="http://www.w3.org/2000/svg" width="15" height="20" viewBox="281.327 15 15 20"><path d="M282.265 35a.937.937 0 0 1-.127-1.867l.127-.009h13.126a.935.935 0 0 1 .934.874.933.933 0 0 1-.209.656.934.934 0 0 1-.599.337l-.126.009h-13.126Zm6.377-3.14-.103-.028a.927.927 0 0 1-.32-.183l-5.366-5.356a.939.939 0 0 1 1.22-1.419l.106.092 3.718 3.709V15.938a.941.941 0 0 1 .938-.938h.001a.936.936 0 0 1 .93.81l.008.128V28.68l3.708-3.713a.94.94 0 0 1 1.222-.093l.106.091a.936.936 0 0 1 .09 1.222l-.09.104-5.306 5.313-.087.079-.115.074-.045.026-.115.047-.15.038-.087.01-.075.003a.945.945 0 0 1-.188-.02Z" fill="#4c5361" fill-rule="evenodd" data-name="ic"/></svg>