<svg xmlns="http://www.w3.org/2000/svg" width="49" height="49" viewBox="693.336 1675.5 49 49"><g data-name="CompositeLayer"><path d="M693.336 1685.3c0-5.412 4.388-9.8 9.8-9.8h29.4c5.413 0 9.8 4.388 9.8 9.8v29.4c0 5.412-4.387 9.8-9.8 9.8h-29.4c-5.412 0-9.8-4.388-9.8-9.8v-29.4Z" stroke-linejoin="round" stroke-linecap="round" stroke="#d1d5db" fill="transparent" data-name="Rectangle 20" stroke-width=".98"/><path d="M726.04 1712h-15.751c-.62 0-1.125-.505-1.125-1.125v-21.75c0-.62.504-1.125 1.125-1.125h9.375v6.375c0 .62.504 1.125 1.125 1.125h6.375v15.375c0 .62-.505 1.125-1.124 1.125Zm-11.112-6.666-.003.002c-1.212.622-2.57 1.589-2.75 2.438a.863.863 0 0 0 .19.753c.263.323.748.469 1.008.469.84 0 1.67-.84 2.864-2.897.224-.074.45-.151.68-.229l.017-.005c1.013-.343 2.06-.698 3.007-.854 1.021.555 2.198.914 3 .914.739 0 1.026-.43 1.132-.688.187-.453.095-1.045-.209-1.346-.308-.302-.931-.455-1.85-.455-.467 0-.99.038-1.6.117-.942-.574-1.559-1.351-2.001-2.522l.017-.073c.207-.85.52-2.134.273-2.936-.12-.755-.682-1.024-1.168-1.024-.518 0-.96.29-1.073.705-.236.865-.019 2.068.38 3.61-.514 1.224-1.332 3.005-1.913 4.021h-.001Zm-1.723 2.737h-.001l-.004-.003c.231-.628 1.027-1.34 1.455-1.72.074-.068.135-.122.18-.165-.958 1.536-1.571 1.888-1.63 1.888Zm3.074-2.915.002-.002c.43-.752.853-1.685 1.33-2.936.427.774.986 1.435 1.617 1.912-.845.166-1.615.483-2.294.763l-.005.002c-.226.093-.438.18-.647.26l-.003.001Zm6.792-.199c-.258 0-.764-.085-1.714-.49.252-.017.479-.025.674-.025.942 0 1.33.18 1.377.336.013.043-.004.084-.045.11 0 .001-.058.07-.292.07Zm-5.38-4.953v-.002c-.229-.73-.226-2.032-.117-2.18.007-.01.015-.015.022-.015.058 0 .108.036.15.109.228.387.16 1.7-.054 2.086l-.001.002Zm9.473-6.004h-6.001v-6h.282c.302 0 .585.116.797.328l4.594 4.594c.208.208.328.496.328.792v.285Z" fill="#f76e6e" fill-rule="evenodd" data-name="ic"/></g></svg>