<svg xmlns="http://www.w3.org/2000/svg" width="24" height="24" viewBox="647 2159.239 24 24"><g data-name="CompositeLayer"><path d="M647 2171.189a12 12 0 1 1 0 .1z" fill="rgba(234,58,61,0.2 )" fill-rule="evenodd" data-name="Ellipse 3"/><path d="M657.675 2176.136a.89.89 0 0 1-.885-.893.89.89 0 0 1 .885-.892h3.173l-5.568-5.616a.897.897 0 0 1 0-1.262.88.88 0 0 1 1.251 0l5.569 5.616v-3.2c0-.492.397-.892.884-.892.488 0 .886.4.886.892v5.354a.892.892 0 0 1-.6.845l-.008.003-.007.002a.873.873 0 0 1-.27.043h-5.31Z" fill="#ea3a3d" fill-rule="evenodd" data-name="arrow"/></g></svg>